<?xml version="1.0" encoding="utf-8"?>
<svg version="1.1" id="Ebene_1" xmlns="http://www.w3.org/2000/svg" xmlns:xlink="http://www.w3.org/1999/xlink" x="0px" y="0px"
	 viewBox="0 0 16 16" style="enable-background:new 0 0 16 16;" xml:space="preserve">
<path fill="#1C3C4C" d="M7.1,11.6c-0.5,0-1,0.4-1,1c0,0.6,0.4,1,1,1c0.5,0,1-0.4,1-1C8,12,7.5,11.6,7.1,11.6z M14.5,5.2
	c-0.2-1.1-1-0.4-1-0.4l-2.2,5.3H7L4.3,3.4L2,3.2C1.2,3.6,1.9,4.4,1.9,4.4l1.5,0.1l2.8,6.8h5.8l0.4-1.1l0,0L14.5,5.2z M11.3,11.6
	c-0.5,0-1,0.4-1,1c0,0.6,0.4,1,1,1c0.6,0,1-0.4,1-1C12.3,12,11.9,11.6,11.3,11.6z M9,2.5C7.8,2.8,6.2,3,6.2,3.8
	c0,1.5,1.4,5.3,2.6,5.3H9c0.9,0,1.8-1.4,2.2-2.1C10.3,7.5,7.9,3,9,2.5z M12.5,3c-0.3-0.6-1.5-0.6-2.2-0.6c-1.3,0,0.4,3.2,1.2,3.6
	C12.2,5.2,12.9,3.6,12.5,3z"/>
</svg>
