<?xml version="1.0" encoding="utf-8"?>
<svg version="1.1" id="Ebene_1" xmlns="http://www.w3.org/2000/svg" xmlns:xlink="http://www.w3.org/1999/xlink" x="0px" y="0px"
	 viewBox="0 0 16 16" style="enable-background:new 0 0 16 16;" xml:space="preserve">
<g>
	<g>
		<g>
			<path fill="#1C3C4C" d="M13.6,8.3v4.9H4.2V8.3H13.6 M14.4,7.5h-11V14h11V7.5L14.4,7.5z"/>
		</g>
	</g>
	<g>
		<path fill="#1C3C4C" d="M11.4,7.5l1.1,1.1c0,0,0,0.1,0,0.1c0,0.4,0.3,0.6,0.6,0.6c0,0,0.1,0,0.1,0l1.1,1.1v-3H11.4z"/>
		<circle fill="#1C3C4C" cx="12.2" cy="10.8" r="0.6"/>
		<ellipse fill="#1C3C4C" cx="8.9" cy="10.8" rx="2" ry="1.7"/>
		<circle fill="#1C3C4C" cx="5.7" cy="10.8" r="0.6"/>
		<path fill="#1C3C4C" d="M3.4,10.5l1.1-1.1c0,0,0.1,0,0.1,0c0.4,0,0.6-0.3,0.6-0.6c0,0,0-0.1,0-0.1l1.1-1.1h-3V10.5z"/>
		<path fill="#1C3C4C" d="M5.3,12.8c0-0.4-0.3-0.6-0.6-0.6c0,0-0.1,0-0.1,0L3.4,11v3h3l-1.1-1.1C5.3,12.9,5.3,12.8,5.3,12.8z"/>
		<path fill="#1C3C4C" d="M13.2,12.1c-0.4,0-0.6,0.3-0.6,0.6c0,0,0,0.1,0,0.1L11.4,14h3v-3l-1.1,1.1C13.3,12.1,13.2,12.1,13.2,12.1z"/>
	</g>
	<g>
		<circle fill="#1C3C4C" cx="10.8" cy="5.7" r="0.6"/>
		<path fill="#1C3C4C" d="M2.7,7.5c0-0.4,0.3-0.7,0.7-0.7h0.4l0-0.1l5.8-3.2l0.4,0.1c0,0,0,0.1,0,0.1c0.2,0.3,0.6,0.4,0.9,0.3
			c0,0,0.1-0.1,0.1-0.1l0.4,0.1l1,1.8l-0.1,0.4c0,0-0.1,0-0.1,0c-0.1,0.1-0.2,0.2-0.3,0.4h1.9l-1.3-2.4h0l-1.4-2.6L8.6,3.2h0
			L4.2,5.6L1.6,7.1l1.1,2.1V7.5z"/>
		<path fill="#1C3C4C" d="M7.1,5.8C6.7,6,6.4,6.4,6.2,6.8h3.6c0-0.2-0.1-0.3-0.1-0.4C9.2,5.5,8.1,5.3,7.1,5.8z"/>
	</g>
</g>
</svg>
