<?xml version="1.0" encoding="utf-8"?>
<svg version="1.1" id="Ebene_1" xmlns="http://www.w3.org/2000/svg" xmlns:xlink="http://www.w3.org/1999/xlink" x="0px" y="0px"
	 viewBox="0 0 16 16" style="enable-background:new 0 0 16 16;" xml:space="preserve">
<g>
	<path fill="#1C3C4C" d="M4.6,9.7c-0.6,0-1.1,0.6-1.1,1.2C3.5,11.5,4,12,4.6,12c0.6,0,1.1-0.6,1.1-1.2C5.7,10.2,5.2,9.7,4.6,9.7z"/>
	<path fill="#1C3C4C" d="M13.4,7.8C13,7.6,12.7,7,12.7,7l-0.5-1.1c-0.1-0.2-0.3-0.8-0.3-0.8h0c-0.3-0.6-1-1.1-1.8-1.1h-1v1.1v0.8V7v0.8
		v3.1h0.8c0-1,0.8-1.9,1.9-1.9c1.1,0,1.9,0.8,1.9,1.9h0.8V8.3L13.4,7.8z"/>
	<path fill="#1C3C4C" d="M1.6,10.8h1.1c0-1,0.8-1.9,1.9-1.9c1.1,0,1.9,0.8,1.9,1.9h1.9V4H1.6V10.8z M2.7,6.1h4.5v0.7H2.7V6.1z"/>
	<path fill="#1C3C4C" d="M11.8,9.7c-0.6,0-1.1,0.6-1.1,1.2c0,0.6,0.5,1.1,1.1,1.1c0.6,0,1.1-0.6,1.1-1.2C12.9,10.2,12.4,9.7,11.8,9.7z"/>
</g>
</svg>
