<?xml version="1.0" encoding="utf-8"?>
<svg version="1.1" id="Ebene_1" xmlns="http://www.w3.org/2000/svg" xmlns:xlink="http://www.w3.org/1999/xlink" x="0px" y="0px"
	 viewBox="0 0 16 16" style="enable-background:new 0 0 16 16;" xml:space="preserve">
<path fill="#1C3C4C" d="M3.8,10.5h-1v-4H1.4V5.6h3.7v0.9H3.8V10.5z M8.9,10.5L8.5,9.3H6.7l-0.4,1.2H5.3L7,5.5h1.3l1.7,4.9H8.9z M8.3,8.4C7.9,7.4,7.8,6.8,7.7,6.6c0-0.1-0.1-0.2-0.1-0.3C7.6,6.6,7.3,7.3,7,8.4H8.3z M14.6,10.5h-1.2l-1.1-1.9l-1.1,1.9H10l1.6-2.5 l-1.5-2.4h1.1l1.1,1.8l1-1.8h1.1L12.9,8L14.6,10.5z"/>
</svg>
