<?xml version="1.0" encoding="utf-8"?>
<svg version="1.1" id="Ebene_1" xmlns="http://www.w3.org/2000/svg" xmlns:xlink="http://www.w3.org/1999/xlink" x="0px" y="0px"
	 viewBox="0 0 16 16" style="enable-background:new 0 0 16 16;" xml:space="preserve">
<rect x="1.4" y="5" fill="#1C3C4C" width="13.2" height="6.1"/>
<path fill="#FFFFFF" d="M4.6,10H3.7V6.7H2.6V6h3v0.7H4.6V10z M8.6,10L8.3,9H6.8l-0.3,1H5.6L7,5.9h1L9.5,10H8.6z M8.1,8.3
	C7.8,7.4,7.7,7,7.6,6.8c0-0.1-0.1-0.2-0.1-0.3C7.5,6.8,7.3,7.4,7,8.3H8.1z M13.4,10h-1l-0.9-1.5L10.6,10H9.7L11,7.9L9.8,6h0.9
	l0.9,1.5L12.4,6h0.9l-1.3,2L13.4,10z"/>
</svg>
