<?xml version="1.0" encoding="utf-8"?>
<svg version="1.1" id="Ebene_1" xmlns="http://www.w3.org/2000/svg" xmlns:xlink="http://www.w3.org/1999/xlink" x="0px" y="0px"
	 viewBox="0 0 16 16" style="enable-background:new 0 0 16 16;" xml:space="preserve">
<path fill="#1C3C4C" d="M12.8,11.2c-0.4,0-0.7-0.2-0.9-0.5l-0.6-0.8c-0.7,1.2-1.9,1.9-3.3,1.9c-2,0-3.6-1.5-3.8-3.4h0.4
	c0.1,0,0.3-0.1,0.3-0.2C5,8.1,5,7.9,4.9,7.8L4.3,7L3.5,5.8C3.4,5.7,3.3,5.6,3.2,5.6c0,0,0,0,0,0s0,0,0,0c0,0-0.1,0-0.1,0
	c0,0-0.1,0.1-0.1,0.1l-1.4,2c-0.1,0.1-0.1,0.3,0,0.4c0.1,0.1,0.2,0.2,0.3,0.2h0.4c0.1,1.4,0.7,2.7,1.7,3.8C5,13.3,6.4,13.9,8,13.9
	s3-0.6,4.1-1.7C12.4,11.9,12.7,11.6,12.8,11.2C12.9,11.2,12.9,11.2,12.8,11.2z M8.3,7.6H7.7c-0.1,0-0.2-0.1-0.2-0.2V7.2
	C7.5,7,7.6,7,7.7,7h0.6C8.4,7,8.5,7,8.5,7.2c0,0.2,0.2,0.4,0.4,0.4c0.2,0,0.4-0.2,0.4-0.4c0-0.5-0.4-0.9-0.9-1V6
	c0-0.2-0.2-0.4-0.4-0.4C7.8,5.6,7.6,5.8,7.6,6v0.2c-0.5,0-0.9,0.5-0.9,1v0.3c0,0.5,0.4,1,1,1h0.6c0.1,0,0.2,0.1,0.2,0.2v0.3
	c0,0.1-0.1,0.2-0.2,0.2H7.7C7.6,9.1,7.5,9,7.5,8.9c0-0.2-0.2-0.4-0.4-0.4c-0.2,0-0.4,0.2-0.4,0.4c0,0.5,0.4,0.9,0.9,1v0.2
	c0,0.2,0.2,0.4,0.4,0.4c0.2,0,0.4-0.2,0.4-0.4V9.9c0.5,0,0.9-0.5,0.9-1V8.6C9.3,8.1,8.8,7.6,8.3,7.6z M14.6,7.9
	c-0.1-0.1-0.2-0.2-0.3-0.2h-0.4c-0.1-1.4-0.7-2.7-1.7-3.8C11,2.8,9.6,2.2,8,2.2S5,2.8,3.9,3.9c-0.3,0.3-0.6,0.6-0.8,1
	c0,0,0.1,0,0.1,0c0.4,0,0.7,0.2,0.9,0.5l0.6,0.8C5.3,5,6.6,4.2,8,4.2c2,0,3.6,1.5,3.8,3.4h-0.4c-0.1,0-0.3,0.1-0.3,0.2
	C11,8,11,8.1,11.1,8.2l0.6,0.8l0.8,1.2c0,0,0,0,0.1,0.1c0.1,0.1,0.2,0.1,0.3,0.1c0.1,0,0.2-0.1,0.3-0.2l0.5-0.7l0.9-1.3
	C14.6,8.1,14.6,8,14.6,7.9z"/>
</svg>
