<?xml version="1.0" encoding="utf-8"?>
<svg version="1.1" xmlns="http://www.w3.org/2000/svg" x="0px" y="0px"
	 viewBox="0 0 16 16" style="enable-background:new 0 0 16 16;" xml:space="preserve">
<path fill="#AAAAAA" d="M16,4v10H0V2h7l1.3,2H16z"/>
<path opacity="0.43" d="M16,5H8.3L7,7H0V4h16V5z"/>
<g>
	<g>
		<path fill="#3A7CAE" d="M8.5,15.4h5.9c0.7,0,1.1-0.8,1.1-1.4c0-0.8-0.6-1.4-1.1-1.4H8.5c-0.7,0-1.1,0.8-1.1,1.4 C7.4,14.6,7.9,15.4,8.5,15.4z"/>
		<path fill="#FFFFFF" d="M14.5,12.6c0.6,0,1.1,0.6,1.1,1.4c0,0.6-0.5,1.4-1.1,1.4H8.5c-0.7,0-1.1-0.8-1.1-1.4c0-0.6,0.5-1.4,1.1-1.4 H14.5 M14.5,12.1H8.5c-1,0-1.6,1-1.6,1.9s0.7,1.9,1.6,1.9h5.9c1,0,1.6-1,1.6-1.9C16.1,13,15.4,12.1,14.5,12.1L14.5,12.1z"/>
	</g>
	<g>
		<path fill="#3A7CAE" d="M8.5,11.8h5.9c0.7,0,1.1-0.8,1.1-1.4c0-0.8-0.6-1.4-1.1-1.4H8.5c-0.7,0-1.1,0.8-1.1,1.4 C7.4,11,7.9,11.8,8.5,11.8z"/>
		<path fill="#FFFFFF" d="M14.5,9.1c0.6,0,1.1,0.6,1.1,1.4c0,0.6-0.5,1.4-1.1,1.4H8.5c-0.7,0-1.1-0.8-1.1-1.4s0.5-1.4,1.1-1.4H14.5 M14.5,8.6H8.5c-1,0-1.6,1-1.6,1.9s0.7,1.9,1.6,1.9h5.9c1,0,1.6-1,1.6-1.9C16.1,9.4,15.4,8.6,14.5,8.6L14.5,8.6z"/>
	</g>
	<g>
		<path fill="#3A7CAE" d="M8.5,8.2h5.9c0.7,0,1.1-0.8,1.1-1.4c0-0.8-0.6-1.4-1.1-1.4H8.5c-0.7,0-1.1,0.8-1.1,1.4 C7.4,7.5,7.9,8.2,8.5,8.2z"/>
		<path fill="#FFFFFF" d="M14.5,5.5c0.6,0,1.1,0.6,1.1,1.4c0,0.6-0.5,1.4-1.1,1.4H8.5c-0.7,0-1.1-0.8-1.1-1.4s0.5-1.4,1.1-1.4H14.5 M14.5,5H8.5c-1,0-1.6,1-1.6,1.9s0.7,1.9,1.6,1.9h5.9c1,0,1.6-1,1.6-1.9C16.1,5.9,15.4,5,14.5,5L14.5,5z"/>
	</g>
</g>
</svg>
