<?xml version="1.0" encoding="utf-8"?>
<svg version="1.1" xmlns="http://www.w3.org/2000/svg" x="0px" y="0px"
	 viewBox="0 0 16 16" style="enable-background:new 0 0 16 16;" xml:space="preserve">
<path fill="#AAAAAA" d="M16,4v10H0V2h7l1.3,2H16z"/>
<path opacity="0.43" d="M16,5H8.3L7,7H0V4h16V5z"/>
<g>
	<g>
		<polygon fill="#3A7CAE" points="7.4,9 15.6,9 11.4,15.5"/>
		<path fill="#FFFFFF" d="M15.6,9l-4.2,6.5L7.4,9H15.6 M16.3,8.6h-0.7H7.4H6.6L7,9.3l4.1,6.5l0.3,0.5l0.3-0.5l4.2-6.5L16.3,8.6 L16.3,8.6z"/>
	</g>
</g>
<g>
	<g>
		<g>
			<path fill="#3A7CAE" d="M13.7,8.7c0.2-0.4,0.4-0.8,0.4-1.4c0-1.5-1.2-2.5-2.5-2.5S9.2,5.9,9.2,7.3c0,0.5,0.1,1,0.4,1.4H13.7z"/>
			<path fill="#FFFFFF" d="M11.6,4.8c1.4,0,2.5,1.1,2.5,2.5c0,0.5-0.2,1-0.4,1.4H9.6C9.3,8.3,9.2,7.8,9.2,7.3 C9.2,5.9,10.2,4.8,11.6,4.8 M11.6,4.4c-1.6,0-2.8,1.3-2.8,2.9c0,0.7,0.2,1.2,0.5,1.6l0.1,0.2h0.2h4.1h0.2l0.1-0.2 c0.2-0.4,0.5-0.9,0.5-1.6C14.5,5.7,13.2,4.4,11.6,4.4L11.6,4.4z"/>
		</g>
	</g>
	<g>
		<path fill="#3A7CAE" d="M10.6,8.7H7.4c0-1,0.7-1.8,1.7-1.8C9.9,6.9,10.6,7.7,10.6,8.7z"/>
		<path fill="#FFFFFF" d="M9,6.9c0.8,0,1.6,0.8,1.6,1.8H7.4C7.4,7.7,8.1,6.9,9,6.9 M9,6.5C7.9,6.5,7,7.5,7,8.7v0.4h0.4h3.3H11V8.7 C11,7.5,10.1,6.5,9,6.5L9,6.5z"/>
	</g>
	<g>
		<path fill="#3A7CAE" d="M15.6,8.7h-2.4c0-0.7,0.5-1.3,1.2-1.3C15.1,7.4,15.6,8,15.6,8.7z"/>
		<path fill="#FFFFFF" d="M14.4,7.4c0.6,0,1.2,0.6,1.2,1.3h-2.4C13.2,8,13.7,7.4,14.4,7.4 M14.4,7c-0.9,0-1.6,0.8-1.6,1.7v0.4h0.4h2.4 H16V8.7C16,7.8,15.3,7,14.4,7L14.4,7z"/>
	</g>
</g>
</svg>
