<?xml version="1.0" encoding="utf-8"?>
<svg version="1.1" xmlns="http://www.w3.org/2000/svg" x="0px" y="0px"
	 viewBox="0 0 16 16" style="enable-background:new 0 0 16 16;" xml:space="preserve">
<path fill="#FFFFFF" d="M1,2h14v12H1V2z"/>
<path fill="#999999" d="M14,3v10H2V3H14 M15,2H1v12h14V2z"/>
<g>
	<g>
		<path fill="#3A7CAE" d="M10.9,5.7C9.7,6,8.2,6.2,8.2,7c0,1.5,1.3,5.1,2.5,5.1h0.2c0.9,0,1.8-1.4,2.1-2C12.2,10.5,9.9,6.2,10.9,5.7z"
			/>
		<path fill="#FFFFFF" d="M10.9,5.7c-1,0.4,1.1,4.4,2,4.4c0,0,0.1,0,0.1,0c-0.3,0.6-1.2,2-2.1,2h-0.2c-1.2,0-2.5-3.6-2.5-5.1
			C8.2,6.2,9.7,6,10.9,5.7 M10.6,4.9C10.4,4.9,10.2,5,10,5.1C8.8,5.3,7.3,5.6,7.3,7c0,1.3,1.2,6,3.3,6h0.2c1.6,0,2.7-2.2,2.9-2.5
			L15,7.8l-2.2,1.3c-0.6-0.6-1.4-2.4-1.4-2.9c0,0.1,1-1.5,0.5-1.4L10.6,4.9L10.6,4.9z"/>
	</g>
	<g>
		<path fill="#3A7CAE" d="M13.1,9.5c-0.8-0.4-2.1-2.6-1.8-3.7c0.1-0.4,0.4-0.7,0.9-0.7l0.4,0c0.5,0,1.7,0,2.1,0.8
			c0.5,0.9-0.4,2.7-1,3.4l-0.2,0.3L13.1,9.5z"/>
		<path fill="#FFFFFF" d="M12.6,5.6c0.6,0,1.4,0,1.7,0.5c0.4,0.6-0.3,2.2-0.9,2.9c-0.8-0.4-2.4-3.5-1.2-3.5C12.3,5.6,12.4,5.6,12.6,5.6
			 M12.6,4.7l-0.2,0l-0.2,0c-0.6,0-1.2,0.4-1.3,1C10.6,7,12,9.5,12.9,9.9l0.7,0.3L14,9.7c0.6-0.8,1.7-2.8,1-3.9
			C14.5,4.7,13.2,4.7,12.6,4.7L12.6,4.7z"/>
	</g>
</g>
<g>
	<g>
		<g>
			<path fill="#3A7CAE" d="M16,8.4C15.8,7.4,15,8,15,8l-2,5H9L6.6,6.7L4.5,6.6C3.8,7,4.4,7.7,4.4,7.7l1.4,0.1l2.6,6.3h5.4l0.4-1.1l0,0
				L16,8.4z M9.2,14.3c-0.4,0-0.9,0.4-0.9,0.9c0,0.4,0.4,0.9,0.9,0.9c0.4,0,0.9-0.4,0.9-0.9C10,14.7,9.7,14.3,9.2,14.3z M13.1,14.3
				c-0.4,0-0.9,0.4-0.9,0.9c0,0.4,0.4,0.9,0.9,0.9s0.9-0.4,0.9-0.9C14,14.7,13.6,14.3,13.1,14.3z"/>
			<path fill="#FFFFFF" d="M4.5,6.6l2.1,0.1L9,12.9h4l2-5c0,0,0.2-0.2,0.5-0.2c0.2,0,0.4,0.1,0.5,0.6L14.3,13l-0.4,1.1H8.5L5.9,7.7
				L4.4,7.7C4.4,7.7,3.8,7,4.5,6.6 M13.1,14.3c0.4,0,0.9,0.4,0.9,0.9c0,0.4-0.4,0.9-0.9,0.9c-0.4,0-0.9-0.4-0.9-0.9
				C12.3,14.7,12.7,14.3,13.1,14.3 M9.2,14.3c0.5,0,0.9,0.4,0.9,0.9c0,0.4-0.4,0.9-0.9,0.9c-0.4,0-0.9-0.4-0.9-0.9
				C8.3,14.7,8.7,14.3,9.2,14.3 M4.3,5.7L4.1,5.8C3.6,6.1,3.4,6.4,3.3,6.9C3.2,7.6,3.7,8.2,3.8,8.3l0.2,0.2l0.3,0l0.9,0l2.4,5.8
				c-0.1,0.3-0.2,0.5-0.2,0.8c0,0.9,0.8,1.7,1.7,1.7s1.7-0.8,1.7-1.7c0-0.1,0-0.2,0-0.3h0.6c0,0.1,0,0.2,0,0.3
				c0,0.9,0.8,1.7,1.7,1.7c0.9,0,1.7-0.8,1.7-1.7c0-0.3-0.1-0.5-0.2-0.8l0,0l0.4-1.1l1.7-4.6l0.1-0.2l-0.1-0.3
				c-0.3-1.2-1.1-1.3-1.4-1.3c-0.5,0-0.9,0.3-1,0.4l-0.2,0.1l-0.1,0.2l-1.8,4.4H9.6L7.4,6.4L7.2,5.9l-0.6,0L4.6,5.7L4.3,5.7L4.3,5.7
				z"/>
		</g>
	</g>
</g>
</svg>
