<?xml version="1.0" encoding="UTF-8" standalone="no"?>
<svg
   xmlns:dc="http://purl.org/dc/elements/1.1/"
   xmlns:cc="http://creativecommons.org/ns#"
   xmlns:rdf="http://www.w3.org/1999/02/22-rdf-syntax-ns#"
   xmlns:svg="http://www.w3.org/2000/svg"
   xmlns="http://www.w3.org/2000/svg"
   xmlns:sodipodi="http://sodipodi.sourceforge.net/DTD/sodipodi-0.dtd"
   xmlns:inkscape="http://www.inkscape.org/namespaces/inkscape"
   viewBox="0 0 16 16"
   version="1.1"
   id="svg10"
   sodipodi:docname="icon-apps-pagetree-page-cart-cart.svg"
   inkscape:version="0.92.1 r15371">
  <metadata
     id="metadata16">
    <rdf:RDF>
      <cc:Work
         rdf:about="">
        <dc:format>image/svg+xml</dc:format>
        <dc:type
           rdf:resource="http://purl.org/dc/dcmitype/StillImage" />
        <dc:title />
      </cc:Work>
    </rdf:RDF>
  </metadata>
  <defs
     id="defs14" />
  <sodipodi:namedview
     pagecolor="#ffffff"
     bordercolor="#666666"
     borderopacity="1"
     objecttolerance="10"
     gridtolerance="10"
     guidetolerance="10"
     inkscape:pageopacity="0"
     inkscape:pageshadow="2"
     inkscape:window-width="1792"
     inkscape:window-height="1003"
     id="namedview12"
     showgrid="false"
     inkscape:zoom="48.13"
     inkscape:cx="9.9036644"
     inkscape:cy="7.2383777"
     inkscape:window-x="754"
     inkscape:window-y="178"
     inkscape:window-maximized="0"
     inkscape:current-layer="svg10" />
  <path
     d="M 2,0 V 16 H 14 V 4 L 10,0 Z"
     id="path2"
     inkscape:connector-curvature="0"
     style="display:inline;fill:#efefef" />
  <path
     d="M 10,3.98 V 0 l 4,4 z"
     id="path4"
     inkscape:connector-curvature="0"
     style="display:inline;opacity:0.65;fill:#ffffff" />
  <path
     d="m 13,5 v 5 L 9,5 Z"
     id="path6"
     inkscape:connector-curvature="0"
     style="display:inline;opacity:0.2" />
  <path
     d="M 2,0 V 16 H 14 V 4 H 13.988 L 13.992,3.992 10.008,0.006 10,0.014 V 0 Z m 1,1 h 6 v 4 h 4 V 15 H 3 Z M 10,1.412 12.586,4 H 10 Z"
     id="path8"
     inkscape:connector-curvature="0"
     style="display:inline;fill:#999999" />
  <g
     id="g6965">
    <path
       inkscape:connector-curvature="0"
       id="path5325"
       d="m 8.3208241,10.650561 v 0.321386 H 7.9994313 7.6780422 v -0.321386 -0.321394 h 0.3213891 0.3213928 z"
       style="display:inline;fill:#fefefe;stroke-width:0.00080339" />
    <path
       inkscape:connector-curvature="0"
       id="path5323"
       d="m 7.0745359,15.031219 c -0.3266776,-0.07968 -0.5628237,-0.36038 -0.583365,-0.693575 -0.01361,-0.220698 0.060679,-0.415375 0.2190801,-0.574194 0.1054987,-0.105808 0.2181984,-0.17259 0.3473438,-0.205903 0.096379,-0.02489 0.2881695,-0.02547 0.3794,-10e-4 0.2584685,0.06875 0.4659934,0.273348 0.5451677,0.537624 0.031669,0.105744 0.02949,0.310283 -0.0043,0.41463 -0.083989,0.258404 -0.3006654,0.462453 -0.55466,0.522327 -0.09702,0.0229 -0.255477,0.02302 -0.3485353,3.31e-4 z m 3.3711881,-7.75e-4 c -0.336085,-0.08137 -0.5715026,-0.382279 -0.5715026,-0.730346 0,-0.35276 0.2300686,-0.64597 0.5747736,-0.73253 0.110559,-0.02779 0.313578,-0.01817 0.421651,0.01984 0.211706,0.07452 0.387295,0.250867 0.46214,0.464247 0.0422,0.120408 0.05222,0.293623 0.02397,0.414004 -0.06346,0.269984 -0.294254,0.50276 -0.560727,0.565593 -0.09669,0.02284 -0.25453,0.02237 -0.350324,-7.82e-4 z M 6.6147377,13.234591 C 6.6076177,13.225991 6.1086899,12.012541 5.5059701,10.538023 4.9032538,9.0635059 4.407515,7.8544431 4.4043331,7.8512219 4.4012083,7.8480969 4.1443365,7.8405969 3.8336344,7.8349219 3.522931,7.8291719 3.256154,7.8218846 3.2407919,7.8186969 3.2107542,7.812447 3.1077137,7.6755168 3.0618901,7.5808553 3.0005524,7.4541547 2.9831525,7.2692036 3.0204523,7.1403279 c 0.01689,-0.0583 0.0349,-0.084887 0.1031104,-0.1519065 0.045467,-0.04469 0.1064771,-0.091888 0.1355623,-0.1049106 l 0.0529,-0.02369 0.8775537,0.0703 c 0.6433259,0.05153 0.8820592,0.0748 0.8944343,0.087179 0.0092,0.0092 0.4840869,1.2031643 1.0551163,2.6530684 0.5710302,1.4499008 1.0446284,2.6403208 1.0524395,2.6453668 0.0079,0.004 0.7742102,0.0094 1.7031039,0.0095 1.3364983,1.42e-4 1.6914393,-0.0025 1.7010523,-0.01536 0.0072,-0.0089 0.370682,-0.921145 0.808915,-2.027892 0.438218,-1.1067468 0.813467,-2.0527093 0.833884,-2.1021315 0.0317,-0.0766 0.04581,-0.0954 0.09571,-0.1273852 0.223427,-0.1432982 0.425481,-0.1519268 0.570408,-0.024347 0.09106,0.080169 0.09424,0.095169 0.09424,0.4390925 0,0.1932799 -0.0061,0.3166193 -0.01436,0.3453103 -0.01206,0.0375 -0.513657,1.3089519 -1.538528,3.9004509 -0.11009,0.278407 -0.205753,0.513223 -0.212548,0.521815 -0.0098,0.0123 -0.486603,0.01571 -2.3090323,0.01571 -1.8221216,0 -2.2993449,-0.0025 -2.3095884,-0.01571 z m 1.660368,-1.022197 C 8.1500389,12.186327 7.9782249,12.082616 7.8204287,11.937935 7.6483709,11.780192 7.3889465,11.423124 7.1983278,11.081713 6.6226116,10.050556 6.1344162,8.4506357 6.1518948,7.652322 6.1557724,7.4781321 6.1576501,7.4658385 6.1944691,7.388384 6.3231544,7.1173545 6.6949644,6.9142743 7.38214,6.7396842 7.5677914,6.6925077 8.4779503,6.4841646 8.5712423,6.4674797 c 0.05089,-0.0091 0.051442,0.006 0.002,0.05303 -0.164246,0.1559569 -0.1817246,0.5385597 -0.04765,1.0428492 0.271057,1.0194578 1.0741582,2.3891271 1.6110937,2.7476841 0.1147,0.07663 0.203405,0.105978 0.290635,0.09623 0.03952,-0.0038 0.07188,-0.0027 0.07188,0.0021 0,0.0162 -0.117369,0.21776 -0.22386,0.384431 -0.223696,0.350099 -0.4874287,0.679298 -0.7464035,0.931657 -0.1866322,0.181867 -0.3363873,0.297392 -0.4895115,0.377618 -0.184305,0.09662 -0.2515433,0.112341 -0.4962517,0.116705 -0.1168637,0.0016 -0.2374646,-0.0012 -0.268011,-0.0083 z M 10.78479,9.4824085 C 10.484554,9.2620792 10.015621,8.5671561 9.7298023,7.9190015 9.6273643,7.6867155 9.5087005,7.3365193 9.4741318,7.1645277 9.3869943,6.7309856 9.4668588,6.4649546 9.7053893,6.3940625 c 0.08988,-0.02672 0.6474837,-0.03809 0.9364607,-0.019131 0.467084,0.030653 0.738366,0.1069213 0.950928,0.2672831 0.118894,0.0897 0.20828,0.2250548 0.245133,0.371209 0.02198,0.08719 0.02211,0.3730666 2.8e-4,0.4999433 -0.07211,0.4186642 -0.267377,0.9296449 -0.5301,1.3873444 -0.150042,0.2614069 -0.41221,0.6253782 -0.4499,0.6246192 -0.0088,-1.96e-4 -0.0414,-0.01949 -0.07334,-0.04292 z"
       style="display:inline;fill:#9aa2a9;stroke-width:0.01249856" />
    <path
       inkscape:connector-curvature="0"
       id="path5321"
       d="m 7.087036,15.018073 c -0.3283091,-0.07078 -0.5767438,-0.376087 -0.5790424,-0.711622 -0.00141,-0.210322 0.06292,-0.374674 0.2055285,-0.524802 0.2921641,-0.307579 0.7592977,-0.310706 1.0610256,-0.0077 0.1475376,0.148449 0.2123884,0.306329 0.2123884,0.51706 0,0.209755 -0.070079,0.378925 -0.2185307,0.527536 -0.1795279,0.179739 -0.4305388,0.253027 -0.6813694,0.198957 z m 3.376717,0.001 c -0.205334,-0.04682 -0.402318,-0.198204 -0.4925967,-0.378658 -0.240806,-0.481346 0.07312,-1.039706 0.6040317,-1.074302 0.443191,-0.02889 0.811467,0.337911 0.782083,0.778942 -0.01981,0.296896 -0.21339,0.552107 -0.492479,0.649165 -0.114778,0.03993 -0.287862,0.05072 -0.401039,0.02489 z M 6.6273104,13.222159 c -0.00712,-0.0086 -0.4555285,-1.09835 -0.9965298,-2.42164 C 5.0897791,9.4772335 4.5975117,8.2736292 4.5368507,8.1258465 4.4742756,7.9733912 4.4167264,7.8509419 4.4038277,7.8428032 4.3883021,7.8330532 4.1994452,7.8247907 3.8100896,7.8168534 3.3722344,7.8079783 3.2344961,7.801441 3.2194031,7.7889161 3.1830653,7.7587287 3.0838279,7.5985463 3.0458422,7.5086896 3.0132806,7.4316773 3.0080685,7.403603 3.007218,7.3009082 c -7.8e-4,-0.1055362 0.00276,-0.1257453 0.032324,-0.1818 0.039349,-0.074562 0.1129,-0.151089 0.1971597,-0.2051527 l 0.060779,-0.039 0.8792747,0.07012 c 0.6081848,0.0485 0.8842769,0.07499 0.8954948,0.08591 0.01177,0.01152 1.7481073,4.3994625 2.0628351,5.2131235 l 0.033848,0.08741 1.7135415,0.0025 c 1.3617122,0.0019 1.7160032,-4.6e-5 1.7255032,-0.0125 0.0101,-0.01324 0.43835,-1.090518 1.456914,-3.6652637 0.116936,-0.2955893 0.220716,-0.5468253 0.230617,-0.5583012 0.04859,-0.056269 0.275225,-0.1478692 0.365913,-0.1478692 0.0999,0 0.175769,0.03529 0.259393,0.120562 l 0.07891,0.080469 -0.0031,0.315068 -0.0031,0.3150631 -0.647009,1.624817 c -0.35586,0.893649 -0.746024,1.875103 -0.867036,2.181004 -0.121013,0.3059 -0.229139,0.575874 -0.240279,0.599932 l -0.02022,0.04379 -2.2887136,0.0025 c -1.8214519,0.0022 -2.2913425,-3.6e-5 -2.301601,-0.01253 z m 1.6602951,-1.022928 c -0.030537,-0.0061 -0.097589,-0.03087 -0.1489853,-0.05527 C 7.6817181,11.926986 7.1802102,11.176987 6.730387,10.037972 6.3848468,9.1630162 6.1497595,8.1642875 6.1642584,7.6328487 6.1685084,7.4764221 6.1705084,7.4661085 6.2112454,7.3845415 6.3455868,7.1157832 6.7083832,6.9244207 7.424141,6.7447768 c 0.1269816,-0.031862 0.3941409,-0.09435 0.5936836,-0.1388394 0.1995459,-0.0445 0.3945561,-0.08912 0.4333572,-0.099165 0.03879,-0.01 0.082648,-0.01829 0.09743,-0.01829 0.025047,0 0.02389,0.0039 -0.017,0.057469 -0.1674716,0.2193326 -0.1504353,0.6379825 0.05131,1.2611416 0.2733833,0.8444137 0.852377,1.8566662 1.3380205,2.339241 0.1960347,0.194794 0.3631917,0.288638 0.4920607,0.276256 0.03457,-0.0027 0.06111,-7.77e-4 0.06111,0.0066 0,0.03518 -0.25546,0.436904 -0.431257,0.678099 -0.4568365,0.626796 -0.909539,1.008949 -1.2877689,1.087075 -0.1005788,0.02082 -0.3731177,0.02394 -0.4675297,0.0063 z M 10.810747,9.4862395 C 10.744767,9.4467653 10.528533,9.2205902 10.424829,9.0825799 10.018829,8.5422499 9.6572073,7.8240594 9.5175225,7.2806508 9.3985731,6.8178888 9.4466525,6.5267543 9.6587653,6.425305 c 0.054,-0.02583 0.08566,-0.029255 0.3591867,-0.038869 0.330372,-0.011646 0.733026,0.0028 0.937267,0.03358 0.483729,0.072879 0.770139,0.2614132 0.859543,0.5658026 0.03264,0.1107875 0.03476,0.3826637 0.0035,0.549809 -0.09194,0.5067165 -0.357225,1.1298876 -0.695575,1.6338546 -0.09928,0.14798 -0.230502,0.3203493 -0.25357,0.3332623 -0.0093,0.0051 -0.0353,-0.0023 -0.05922,-0.0165 z"
       style="display:inline;fill:#5a8eb5;stroke-width:0.01249856" />
    <path
       inkscape:connector-curvature="0"
       id="path5317"
       d="m 7.1151657,15.023706 c -0.2459282,-0.04099 -0.467742,-0.226836 -0.5618551,-0.470769 -0.02618,-0.06785 -0.03358,-0.112353 -0.038369,-0.230726 -0.0053,-0.13246 -0.0028,-0.15672 0.026443,-0.250556 0.073251,-0.23495 0.2452879,-0.405583 0.4956125,-0.491566 0.053249,-0.01823 0.1025307,-0.02334 0.2187253,-0.02281 0.1291568,7.74e-4 0.1616822,0.0062 0.2342435,0.03284 0.1860508,0.07036 0.3260151,0.190883 0.4116355,0.354188 0.05942,0.113321 0.08529,0.216866 0.08529,0.341382 0,0.128271 -0.01759,0.210996 -0.06819,0.320651 -0.140277,0.304034 -0.4665874,0.473504 -0.803585,0.417344 z m 3.3746133,7.85e-4 c -0.410889,-0.07367 -0.6823066,-0.498035 -0.5783647,-0.904415 0.03504,-0.137038 0.09232,-0.237107 0.1939617,-0.338724 0.18777,-0.187769 0.444851,-0.258916 0.699856,-0.1937 0.318883,0.08165 0.555886,0.382636 0.555886,0.706205 0,0.23904 -0.139722,0.49525 -0.339882,0.623303 -0.144985,0.09279 -0.364934,0.137159 -0.531457,0.107274 z M 6.6274004,13.222104 C 6.6204005,13.213504 6.273255,12.371256 5.8559991,11.350433 5.4387429,10.329615 4.9449847,9.1216249 4.7587587,8.6660141 4.4799906,7.9840059 4.4156077,7.8367019 4.3943778,7.8323569 4.3801778,7.8292269 4.1142919,7.8221069 3.8034797,7.8158569 3.3756502,7.8073569 3.2336671,7.8007199 3.2190408,7.7885819 3.1831778,7.7588199 3.0871649,7.6034614 3.0476202,7.5112232 c -0.034387,-0.080251 -0.0394,-0.1063364 -0.040324,-0.2103463 -7.79e-4,-0.108812 0.002,-0.1242368 0.035362,-0.1844913 0.042537,-0.076762 0.1436391,-0.1766138 0.2164488,-0.2137575 l 0.051069,-0.026069 0.8729091,0.06961 c 0.5687084,0.045348 0.8783563,0.0748 0.8885339,0.08449 0.0087,0.0081 0.4840048,1.2042194 1.0564784,2.6578721 l 1.0408572,2.6430198 1.7135151,0.0026 c 1.3615473,0.0022 1.7160253,-4.9e-5 1.7257903,-0.01244 0.0072,-0.0089 0.11679,-0.280012 0.244525,-0.603101 0.805,-2.0361278 1.423374,-3.5886504 1.438658,-3.6119841 0.02366,-0.035947 0.172646,-0.1133647 0.264354,-0.1372439 0.09295,-0.0242 0.134454,-0.02403 0.218549,7.8e-4 0.05396,0.01602 0.0833,0.03621 0.146428,0.1005101 l 0.07891,0.080469 -0.0031,0.3150628 -0.0031,0.3150681 -0.553237,1.387343 c -0.304276,0.763041 -0.700037,1.758553 -0.879474,2.212254 -0.179429,0.453694 -0.331755,0.831936 -0.338498,0.840526 -0.0098,0.0123 -0.483968,0.01571 -2.2964366,0.01571 -1.8122094,0 -2.2868148,-0.0025 -2.2969286,-0.01571 z"
       style="display:inline;fill:#55626e;stroke-width:0.01249856" />
    <path
       inkscape:connector-curvature="0"
       id="path5315"
       d="M 7.0645611,15.000631 C 6.5182672,14.852452 6.3329784,14.177328 6.729577,13.780056 c 0.3782563,-0.378899 1.0115072,-0.24482 1.2035259,0.254806 0.03903,0.101652 0.0532,0.304116 0.02933,0.41918 -0.01902,0.09176 -0.09753,0.247804 -0.1622073,0.322572 -0.1703663,0.19698 -0.4836558,0.292381 -0.7356541,0.224017 z m 3.3744819,-7.74e-4 c -0.233484,-0.06113 -0.424465,-0.23946 -0.5040427,-0.470561 -0.03891,-0.112979 -0.04196,-0.335658 -0.0063,-0.441527 0.06812,-0.20091 0.1966407,-0.351415 0.3718157,-0.43548 0.131327,-0.06301 0.230449,-0.08272 0.371087,-0.0734 0.186307,0.01206 0.33929,0.08206 0.470244,0.214973 0.215294,0.218496 0.266294,0.54709 0.128938,0.830761 -0.05584,0.115248 -0.211254,0.27037 -0.325119,0.324394 -0.161572,0.07673 -0.340127,0.09467 -0.506881,0.05093 z M 6.6081742,13.159781 c -0.01575,-0.0361 -0.5120306,-1.2488 -1.102858,-2.694902 C 4.6744918,8.4313782 4.4254262,7.8335019 4.4060911,7.8262307 4.3923531,7.8211057 4.1229908,7.8115309 3.8075265,7.8050683 L 3.2339641,7.7933157 3.203852,7.7565537 C 3.153552,7.6951447 3.0765239,7.5599779 3.0544081,7.4943034 c -0.011465,-0.034076 -0.026765,-0.06585 -0.033925,-0.070563 -0.01711,-0.011236 -0.018322,-0.2331936 -0.00154,-0.2449849 0.0071,-0.0049 0.02353,-0.033151 0.03661,-0.062754 0.0256,-0.05802 0.137513,-0.1694454 0.2074215,-0.2065076 0.04242,-0.02249 0.057145,-0.021754 0.9180122,0.04728 0.6707109,0.053769 0.8779907,0.07421 0.8881282,0.087589 0.0072,0.0097 0.478948,1.2003795 1.0481652,2.6461723 0.569214,1.4457958 1.0406131,2.6357498 1.0475572,2.6443368 0.01,0.0123 0.3694524,0.01571 1.7214584,0.01571 1.6121312,0 1.7098792,-10e-4 1.7272322,-0.02189 0.0101,-0.01194 0.391138,-0.963959 0.846731,-2.115392 0.548104,-1.3852477 0.837467,-2.1015169 0.855329,-2.1171757 0.0582,-0.05109 0.225495,-0.1202865 0.309733,-0.1281604 0.124446,-0.011645 0.197286,0.01711 0.295889,0.1166753 L 13,8.1641592 12.9969,8.4767763 C 12.995,8.68636 12.9883,8.7923305 12.97951,8.798298 c -0.008,0.0049 -0.07972,0.1748199 -0.160203,0.3776122 -0.08065,0.2027911 -0.474177,1.1954878 -0.874697,2.2060048 l -0.728223,1.837286 -2.2894764,0.0025 -2.2894747,0.0025 z"
       style="display:inline;fill:#354554;stroke-width:0.01249856" />
    <path
       inkscape:connector-curvature="0"
       id="path5313"
       d="M 7.0859386,14.999422 C 6.631485,14.891727 6.3967905,14.391781 6.6016391,13.96776 c 0.05308,-0.109881 0.196909,-0.258021 0.3055781,-0.31478 0.281723,-0.147119 0.6257533,-0.09539 0.8486218,0.127391 0.2514158,0.251415 0.2866419,0.629363 0.08602,0.92297 -0.09752,0.142724 -0.2449921,0.246083 -0.4129229,0.289413 -0.081979,0.02113 -0.2667498,0.02479 -0.3430031,0.0073 z m 3.3522624,-0.0073 c -0.08883,-0.02388 -0.218662,-0.09317 -0.291414,-0.155616 -0.07977,-0.06833 -0.1643657,-0.1996 -0.2030257,-0.314755 -0.06621,-0.19728 -0.034,-0.443633 0.08094,-0.618821 0.09295,-0.141661 0.248286,-0.253748 0.412055,-0.297326 0.03781,-0.01 0.123202,-0.01826 0.189858,-0.01832 0.399051,-3.99e-4 0.710486,0.309094 0.709762,0.705521 -3.83e-4,0.20323 -0.06925,0.372967 -0.207668,0.511322 -0.09184,0.09184 -0.212848,0.160811 -0.330872,0.188628 -0.09987,0.02359 -0.27115,0.02324 -0.359633,-3.91e-4 z M 6.6281439,13.190851 C 6.579394,13.060214 4.4358632,7.8318593 4.427702,7.8236934 4.4215796,7.817571 4.1555364,7.8068057 3.8364274,7.7997312 3.5173132,7.7926034 3.2491787,7.7845183 3.2405651,7.7817183 3.2110409,7.7720906 3.088942,7.5680276 3.0583501,7.4771868 c -0.0168,-0.049963 -0.03319,-0.08335 -0.036373,-0.07419 -0.0031,0.0091 -0.0099,-0.012246 -0.01487,-0.047547 -0.0098,-0.06903 0.0031,-0.1912488 0.01739,-0.1678376 0.005,0.0081 0.01521,-0.0072 0.02381,-0.03599 0.01882,-0.0629 0.131452,-0.1864751 0.2059221,-0.2259846 l 0.05529,-0.02933 0.8712055,0.069643 c 0.479162,0.03831 0.8758583,0.0745 0.8815508,0.08043 0.0057,0.006 0.4772041,1.196808 1.047814,2.6463866 0.5706102,1.4495718 1.0438232,2.6419418 1.0515792,2.6496998 0.01549,0.01548 3.4406733,0.02125 3.4561073,0.0067 0.0038,-0.0036 0.38458,-0.957779 0.844565,-2.118356 0.606573,-1.5304298 0.844091,-2.1162313 0.86459,-2.13233 0.01565,-0.012247 0.06916,-0.04273 0.11925,-0.067869 0.175175,-0.08792 0.352525,-0.06853 0.462282,0.05053 0.02618,0.02843 0.05236,0.05263 0.05821,0.053769 0.02694,0.0052 0.03183,0.05459 0.03195,0.3250117 1.88e-4,0.2738971 -0.0034,0.3355692 -0.02299,0.3240031 -0.0035,-0.0028 -0.166632,0.3952264 -0.360436,0.8843474 -0.193804,0.4891158 -0.489613,1.2352078 -0.65736,1.6579728 -0.167743,0.422763 -0.404713,1.020347 -0.526597,1.327971 l -0.221598,0.55923 H 8.92299 c -2.1663583,0 -2.2871184,-0.001 -2.2948484,-0.02189 z"
       style="display:inline;fill:#243445;stroke-width:0.01249856" />
    <path
       inkscape:connector-curvature="0"
       id="path5311"
       d="m 7.0995347,14.993897 c -0.1798652,-0.04061 -0.3413052,-0.151632 -0.441296,-0.303482 -0.081075,-0.123119 -0.1099765,-0.211247 -0.1177354,-0.35902 -0.01152,-0.21947 0.05041,-0.384562 0.2021334,-0.538767 0.2816095,-0.286216 0.7230517,-0.288375 1.0069509,-0.0039 0.2639334,0.263515 0.2831833,0.672558 0.0454,0.964468 -0.1585428,0.194581 -0.452101,0.296615 -0.6954481,0.241671 z m 3.3746203,-7.85e-4 c -0.372204,-0.08066 -0.6227156,-0.46222 -0.5450697,-0.830319 0.08173,-0.387348 0.4549537,-0.637325 0.8325337,-0.557575 0.415883,0.08786 0.666237,0.511186 0.536649,0.907534 -0.07771,0.23747 -0.291037,0.430251 -0.533069,0.481536 -0.10426,0.02208 -0.185082,0.02183 -0.291044,-10e-4 z M 6.631465,13.172303 C 6.6222153,13.14993 6.126982,11.939286 5.5310185,10.481948 4.9350527,9.0246069 4.4422598,7.8259234 4.4359219,7.8181982 4.428172,7.8086983 4.3019916,7.801586 4.0465359,7.7962235 3.8387154,7.7918486 3.5714698,7.7848485 3.4526609,7.7806235 l -0.2160138,-0.00763 -0.050287,-0.07021 C 3.1230112,7.614304 3.0681734,7.5023291 3.0447734,7.4136084 c -0.014734,-0.055834 -0.01851,-0.0617 -0.020222,-0.031234 -0.002,0.03501 -0.0028,0.03417 -0.01409,-0.0125 -0.01439,-0.05991 -4.59e-5,-0.2072306 0.01518,-0.156233 0.0091,0.03033 0.0093,0.03042 0.010679,0.0028 0.0034,-0.078181 0.1136219,-0.2175172 0.2269952,-0.2870178 l 0.04452,-0.02731 0.8616282,0.0687 c 0.4738939,0.03778 0.8679683,0.070889 0.8757214,0.073579 0.0078,0.0028 0.073579,0.1557739 0.1462653,0.340199 0.07269,0.1844251 0.5405702,1.3728774 1.0397284,2.6410094 0.4991528,1.268133 0.9135174,2.312869 0.9208037,2.321651 0.010679,0.01287 0.3520788,0.01526 1.7450848,0.01284 l 1.7318346,-0.0025 0.838185,-2.114354 c 0.682502,-1.7216862 0.844335,-2.1192072 0.871346,-2.1403745 0.05127,-0.04022 0.18306,-0.098779 0.256607,-0.1140343 0.130125,-0.027 0.25859,0.02563 0.34136,0.1398855 0.02073,0.02851 0.03754,0.04502 0.03754,0.03672 0,-0.0083 0.0065,-0.011642 0.01251,-0.0073 0.0082,0.0048 0.01251,0.1185238 0.01251,0.2996821 0,0.280102 -0.0063,0.3506713 -0.02467,0.3196967 -0.009,-0.01412 -0.06137,0.1168349 -0.951009,2.3615355 -0.276503,0.697737 -0.574493,1.448589 -0.662196,1.668563 l -0.159456,0.399954 -2.2766531,0.0025 -2.2766451,0.0025 z"
       style="display:inline;fill:#1d2d3e;stroke-width:0.01249856" />
  </g>
</svg>
