<?xml version="1.0" encoding="UTF-8" standalone="no"?>
<svg
   xmlns:dc="http://purl.org/dc/elements/1.1/"
   xmlns:cc="http://creativecommons.org/ns#"
   xmlns:rdf="http://www.w3.org/1999/02/22-rdf-syntax-ns#"
   xmlns:svg="http://www.w3.org/2000/svg"
   xmlns="http://www.w3.org/2000/svg"
   xmlns:sodipodi="http://sodipodi.sourceforge.net/DTD/sodipodi-0.dtd"
   xmlns:inkscape="http://www.inkscape.org/namespaces/inkscape"
   viewBox="0 0 16 16"
   version="1.1"
   id="svg10"
   sodipodi:docname="icon-apps-pagetree-page-cart-product.svg"
   inkscape:version="0.92.1 r15371">
  <metadata
     id="metadata16">
    <rdf:RDF>
      <cc:Work
         rdf:about="">
        <dc:format>image/svg+xml</dc:format>
        <dc:type
           rdf:resource="http://purl.org/dc/dcmitype/StillImage" />
        <dc:title></dc:title>
      </cc:Work>
    </rdf:RDF>
  </metadata>
  <defs
     id="defs14" />
  <sodipodi:namedview
     pagecolor="#ffffff"
     bordercolor="#666666"
     borderopacity="1"
     objecttolerance="10"
     gridtolerance="10"
     guidetolerance="10"
     inkscape:pageopacity="0"
     inkscape:pageshadow="2"
     inkscape:window-width="1791"
     inkscape:window-height="1265"
     id="namedview12"
     showgrid="false"
     inkscape:zoom="51.58"
     inkscape:cx="8.289409"
     inkscape:cy="6.2520597"
     inkscape:window-x="528"
     inkscape:window-y="85"
     inkscape:window-maximized="0"
     inkscape:current-layer="svg10" />
  <path
     d="M 2,0 V 16 H 14 V 4 L 10,0 Z"
     id="path2"
     inkscape:connector-curvature="0"
     style="display:inline;fill:#efefef" />
  <path
     d="M 10,3.98 V 0 l 4,4 z"
     id="path4"
     inkscape:connector-curvature="0"
     style="display:inline;opacity:0.65;fill:#ffffff" />
  <path
     d="m 13,5 v 5 L 9,5 Z"
     id="path6"
     inkscape:connector-curvature="0"
     style="display:inline;opacity:0.2" />
  <path
     d="M 2,0 V 16 H 14 V 4 H 13.988 L 13.992,3.992 10.008,0.006 10,0.014 V 0 Z m 1,1 h 6 v 4 h 4 V 15 H 3 Z M 10,1.412 12.586,4 H 10 Z"
     id="path8"
     inkscape:connector-curvature="0"
     style="display:inline;fill:#999999" />
  <g
     id="g6930"
     style="display:inline" />
  <g
     id="g6946"
     style="display:inline">
    <g
       id="g6935">
      <path
         id="path6924"
         d="M 13,8.530964 C 12.803969,7.6488223 12.166865,8.187909 12.166865,8.187909 l -1.666266,4.165672 H 7.1190586 L 5.0607289,7.0607285 3.2964469,6.962716 c -0.6371036,0.343055 -0.04901,0.9311491 -0.04901,0.9311491 l 1.1761868,0.04901 2.2053538,5.3418509 h 4.5577255 l 0.343056,-0.882133 v 0 z"
         style="display:inline;fill:#1d2d3e;fill-opacity:1;stroke-width:0.49007854"
         inkscape:connector-curvature="0" />
      <path
         id="path6922"
         d="m 7.2170737,13.529772 c -0.3920625,0 -0.7351177,0.343044 -0.7351177,0.735114 0,0.39205 0.3430552,0.735114 0.7351177,0.735114 0.3920626,0 0.7351173,-0.343064 0.7351173,-0.735114 0,-0.39207 -0.3430547,-0.735114 -0.7351173,-0.735114 z"
         style="display:inline;fill:#1d2d3e;fill-opacity:1;stroke-width:0.49007854"
         inkscape:connector-curvature="0" />
      <path
         id="path6920"
         d="m 10.549606,13.529772 c -0.392066,0 -0.7351151,0.343044 -0.7351151,0.735114 0,0.39205 0.3430491,0.735114 0.7351151,0.735114 0.392066,0 0.735119,-0.343064 0.735119,-0.735114 0,-0.39207 -0.343053,-0.735114 -0.735119,-0.735114 z"
         style="display:inline;fill:#1d2d3e;fill-opacity:1;stroke-width:0.49007854"
         inkscape:connector-curvature="0" />
    </g>
    <path
       id="path6918"
       d="m 9.9121094,5.0019531 c -0.1225192,0 -0.2437789,0.050422 -0.3417969,0.1484375 L 6.9726562,7.7460938 c -0.1960318,0.1960318 -0.34375,0.5889463 -0.34375,0.8339843 l 0.048828,1.2246094 c 0.04901,0.2940455 0.2940224,0.4900535 0.5390625,0.5390625 l 1.2246093,0.04883 c 0.2450388,0 0.6379534,-0.145764 0.8339844,-0.341797 L 11.873047,7.453125 c 0.196028,-0.1960312 0.196028,-0.4895158 0,-0.6855469 L 10.255859,5.1503906 C 10.157843,5.0523751 10.034629,5.0019531 9.9121094,5.0019531 Z M 7.8789062,8.5917969 c 0.1470237,0 0.2934964,0.061074 0.4160157,0.1835937 0.24504,0.24504 0.24504,0.5889464 0,0.8339844 -0.2450386,0.245043 -0.5869915,0.245043 -0.8320313,0 -0.2450385,-0.245038 -0.2450385,-0.5889444 0,-0.8339844 0.1225199,-0.1225195 0.268992,-0.1835937 0.4160156,-0.1835937 z"
       style="display:inline;fill:#ff8700;fill-opacity:1;stroke-width:0.49007854"
       inkscape:connector-curvature="0" />
  </g>
</svg>
