<?xml version="1.0" encoding="utf-8"?>
<!-- Generator: Adobe Illustrator 18.1.0, SVG Export Plug-In . SVG Version: 6.00 Build 0)  -->
<!DOCTYPE svg PUBLIC "-//W3C//DTD SVG 1.1//EN" "http://www.w3.org/Graphics/SVG/1.1/DTD/svg11.dtd">
<svg version="1.1" id="Ebene_1" xmlns="http://www.w3.org/2000/svg" xmlns:xlink="http://www.w3.org/1999/xlink" x="0px" y="0px"
	 viewBox="0 0 28 28" enable-background="new 0 0 28 28" xml:space="preserve">
<rect x="0" y="0" fill-rule="evenodd" clip-rule="evenodd" fill="#1F3041" width="28" height="28"/>
<g>
	<g>
		<path fill="#FFFFFF" d="M12.6,7.7H18c0.6,0,1.1-0.5,1.1-1.1S18.6,5.5,18,5.5h-5.4c-0.6,0-1.1,0.5-1.1,1.1S12,7.7,12.6,7.7z
			 M12.6,13.5H18c0.6,0,1.1-0.5,1.1-1.1s-0.5-1.1-1.1-1.1h-5.4c-0.6,0-1.1,0.5-1.1,1.1S12,13.5,12.6,13.5z M12.6,10.5H18
			c0.6,0,1.1-0.5,1.1-1.1S18.6,8.4,18,8.4h-5.4c-0.6,0-1.1,0.5-1.1,1.1S12,10.5,12.6,10.5z M11.9,21.9c-0.8,0-1.5,0.7-1.5,1.5
			s0.7,1.5,1.5,1.5s1.5-0.7,1.5-1.5S12.7,21.9,11.9,21.9z M23.7,11.7c-0.4-1.8-1.7-0.7-1.7-0.7l-3.4,8.5h-6.9L7.5,8.7L3.9,8.5
			c-1.3,0.7-0.1,1.9-0.1,1.9l2.4,0.1l4.5,10.9h9.3l0.7-1.8h0L23.7,11.7z M18.7,21.9c-0.8,0-1.5,0.7-1.5,1.5c0,0.8,0.7,1.5,1.5,1.5
			c0.8,0,1.5-0.7,1.5-1.5C20.2,22.6,19.5,21.9,18.7,21.9z M12.6,16.5H18c0.6,0,1.1-0.5,1.1-1.1s-0.5-1.1-1.1-1.1h-5.4
			c-0.6,0-1.1,0.5-1.1,1.1S12,16.5,12.6,16.5z"/>
	</g>
</g>
</svg>