<?xml version="1.0" encoding="utf-8"?>
<svg version="1.1" id="Ebene_1" xmlns="http://www.w3.org/2000/svg" xmlns:xlink="http://www.w3.org/1999/xlink" x="0px" y="0px"
	 viewBox="0 0 28 28" style="enable-background:new 0 0 28 28;" xml:space="preserve">
<rect fill="#3A7CAE" width="28" height="28"/>
<g>
	<g>
		<path fill="#FFFFFF" d="M23.4,11.3c-0.4-1.7-1.6-0.7-1.6-0.7l-3.2,8h-6.5L8.2,8.5L4.8,8.3C3.6,9,4.7,10.1,4.7,10.1L7,10.2l4.2,10.2
			h8.7l0.7-1.7l0,0L23.4,11.3z M12.3,20.8c-0.7,0-1.4,0.7-1.4,1.4s0.7,1.4,1.4,1.4s1.4-0.7,1.4-1.4S13.1,20.8,12.3,20.8z M18.7,20.8
			c-0.7,0-1.4,0.7-1.4,1.4s0.7,1.4,1.4,1.4s1.4-0.7,1.4-1.4S19.4,20.8,18.7,20.8z"/>
	</g>
</g>
<g>
	<path fill="#FFFFFF" d="M22.1,7.2L22,6.3L21.8,5l-1,0.8l-0.7,0.6l-0.4,0.3l0.8,0.4l-1.7,4.1l-0.6,1.4l0,0l0,0l0,0L18,12.4l-0.3-0.2
		L17,11.7l-2-1.5v-0.1c0,0-0.1-0.1-0.1,0l-0.1,0.2l-0.2,0.3l-0.4,0.7l-0.6,1.1L12.2,15v0.1c0,0,0,0.1,0,0L12.1,15L12,14.7l-0.5-0.3
		l-1.8-1.1L9,12.9l0,0V13l-0.4,0.3l-0.5,1L7.4,16L6,19.2l1,0.4l1.4-3.2L9.1,15l0.2-0.5l0.1-0.1c0,0,0-0.1,0,0h0.1l0.2,0.1l1.1,0.7
		l0.9,0.7l0.5,0.3l0.3,0.2c0,0,0,0.1,0.1,0v-0.1l0.1-0.1l1.9-3.5L15,12l0.2-0.5v-0.1c0,0,0,0,0.1,0l1.2,0.9l1,0.7l0.6,0.4l0.5,0.3
		l0,0l0,0v0l1-2.4l1.7-4.1L22,7.5L22.1,7.2z"/>
</g>
</svg>
