<?xml version="1.0" encoding="utf-8"?>
<!-- Generator: Adobe Illustrator 18.1.0, SVG Export Plug-In . SVG Version: 6.00 Build 0)  -->
<!DOCTYPE svg PUBLIC "-//W3C//DTD SVG 1.1//EN" "http://www.w3.org/Graphics/SVG/1.1/DTD/svg11.dtd">
<svg version="1.1" id="Layer_x5F_1_x5F_1" xmlns="http://www.w3.org/2000/svg" xmlns:xlink="http://www.w3.org/1999/xlink" x="0px"
	 y="0px" viewBox="0 0 48.2 48.2" enable-background="new 0 0 48.2 48.2" xml:space="preserve">
<rect x="0" y="60" fill-rule="evenodd" clip-rule="evenodd" fill="#1E2F40" width="48.2" height="48.2"/>
<g>
	<g>
		<path fill="#3B7EB0" d="M-30.2,21.2c2.8-3.2,5.7-10,4.2-12.6c-1.5-2.6-6.3-2.2-9-2.2C-40.3,6.5-33.2,19.6-30.2,21.2z"/>
		<path fill="#3B7EB0" d="M-40.6,6.8c-5.1,1.3-11.7,2-11.7,5.5c0,6.4,5.7,21.6,10.5,21.6h1.1c3.5,0,7.5-6.1,8.9-8.6
			C-35.1,27.2-44.9,8.9-40.6,6.8z"/>
	</g>
	<path fill-rule="evenodd" clip-rule="evenodd" fill="#1E2F40" d="M-42.1,36.4c0.1-0.5,0.2-1.1,0.2-1.8l10.4,0l8-20.1
		c0,0,2.9-2.5,3.9,1.7l-8.9,22.4l-13.6-0.9C-41.9,37-41.9,37.3-42.1,36.4z"/>
	<path fill-rule="evenodd" clip-rule="evenodd" fill="#1E2F40" d="M-47.6,34.4l-9.8-25l-8.3-0.7c-3,1.5-0.3,4.4-0.3,4.4l5.6,0.1
		l10.4,25.4h21.6l1.7-4.3H-47.6z"/>
	<path fill-rule="evenodd" clip-rule="evenodd" fill="#1E2F40" d="M-47.2,40.1c1.9,0,3.5,1.6,3.5,3.5s-1.6,3.5-3.5,3.5
		c-1.9,0-3.5-1.6-3.5-3.5S-49.1,40.1-47.2,40.1z"/>
	<path fill-rule="evenodd" clip-rule="evenodd" fill="#1E2F40" d="M-31.4,40.2c1.9,0,3.5,1.6,3.5,3.5c0,1.9-1.6,3.5-3.5,3.5
		c-1.9,0-3.5-1.6-3.5-3.5C-34.8,41.7-33.3,40.2-31.4,40.2z"/>
</g>
<rect x="68.6" y="116.7" fill-rule="evenodd" clip-rule="evenodd" fill="#1E2F40" width="48.2" height="48.2"/>
<rect x="135.6" y="176.7" fill-rule="evenodd" clip-rule="evenodd" fill="#1E2F40" width="48.2" height="48.2"/>
<path fill="#FFFFFF" d="M26.3,70.6C23.1,71.4,19,71.8,19,74c0,4,3.6,13.6,6.6,13.6h0.7c2.2,0,4.7-3.8,5.6-5.4
	C29.8,83.4,23.7,71.9,26.3,70.6z M35.5,71.7c-0.9-1.6-3.9-1.4-5.6-1.4c-3.3,0,1.1,8.3,3,9.3C34.6,77.6,36.5,73.4,35.5,71.7z"/>
<path fill-rule="evenodd" clip-rule="evenodd" fill="#FFFFFF" d="M41.7,77.1c-0.7-3.1-2.9-1.3-2.9-1.3L33,90.5H21L13.8,72l-6.2-0.5
	c-2.2,1.1-0.2,3.2-0.2,3.2l4.1,0.1l7.7,18.8h16l1.2-3.1h0L41.7,77.1z M21.3,94.7c-1.4,0-2.6,1.2-2.6,2.6s1.2,2.6,2.6,2.6
	c1.4,0,2.6-1.2,2.6-2.6S22.7,94.7,21.3,94.7z M33,94.8c-1.4,0-2.6,1.1-2.6,2.6c0,1.4,1.1,2.6,2.6,2.6c1.4,0,2.6-1.1,2.6-2.6
	C35.6,95.9,34.4,94.8,33,94.8z"/>
<rect x="0" y="0" fill-rule="evenodd" clip-rule="evenodd" fill="#222222" width="48.2" height="48.2"/>
<path fill="#FFFFFF" d="M26.3,10.6C23.1,11.4,19,11.8,19,14c0,4,3.6,13.6,6.6,13.6h0.7c2.2,0,4.7-3.8,5.6-5.4
	C29.8,23.4,23.7,11.9,26.3,10.6z M35.5,11.7c-0.9-1.6-3.9-1.4-5.6-1.4c-3.3,0,1.1,8.3,3,9.3C34.6,17.6,36.5,13.4,35.5,11.7z"/>
<path fill-rule="evenodd" clip-rule="evenodd" fill="#FFFFFF" d="M41.7,17.1c-0.7-3.1-2.9-1.3-2.9-1.3L33,30.5H21L13.8,12l-6.2-0.5
	c-2.2,1.1-0.2,3.2-0.2,3.2l4.1,0.1l7.7,18.8h16l1.2-3.1h0L41.7,17.1z M21.3,34.7c-1.4,0-2.6,1.2-2.6,2.6s1.2,2.6,2.6,2.6
	c1.4,0,2.6-1.2,2.6-2.6S22.7,34.7,21.3,34.7z M33,34.8c-1.4,0-2.6,1.1-2.6,2.6c0,1.4,1.1,2.6,2.6,2.6c1.4,0,2.6-1.1,2.6-2.6
	C35.6,35.9,34.4,34.8,33,34.8z"/>
<rect x="135.7" y="176.7" display="none" fill-rule="evenodd" clip-rule="evenodd" fill="#92CFF4" width="48.2" height="48.2"/>
<g>
	<g>
		<path fill="#FFFFFF" d="M176.3,196.8c-0.7-3.1-2.9-1.3-2.9-1.3l-5.8,14.7h-11.9l-7.3-18.5l-6.2-0.5c-2.2,1.1-0.2,3.2-0.2,3.2
			l4.1,0.1l7.7,18.8h16l1.2-3.1h0L176.3,196.8z M156,214.4c-1.4,0-2.6,1.2-2.6,2.6c0,1.4,1.2,2.6,2.6,2.6s2.6-1.2,2.6-2.6
			C158.6,215.5,157.4,214.4,156,214.4z M167.7,214.4c-1.4,0-2.6,1.1-2.6,2.6c0,1.4,1.1,2.6,2.6,2.6c1.4,0,2.6-1.1,2.6-2.6
			C170.3,215.6,169.1,214.4,167.7,214.4z M155.4,203.1l5.7,0.3c0.5,0,1.3-0.3,1.7-0.7l10.2-10.2c0.4-0.4,0.4-1,0-1.4l-6.6-6.6
			c-0.4-0.4-1-0.4-1.4,0l-10.2,10.2c-0.4,0.4-0.7,1.2-0.7,1.7l0.3,5.7C154.3,202.6,154.8,203.1,155.4,203.1z M156.9,197.7
			c0.8-0.8,2.1-0.8,2.9,0c0.8,0.8,0.8,2.1,0,2.9c-0.8,0.8-2.1,0.8-2.9,0C156.1,199.7,156.1,198.5,156.9,197.7z"/>
	</g>
</g>
<path fill="#FFFFFF" d="M109.2,133.8c-0.3-1.3-0.9-1.8-1.5-1.8l0,0H82.6l-1.3-3.2l-6.2-0.5c-2.2,1.1-0.2,3.2-0.2,3.2l4.1,0.1
	l7.7,18.8h16l1.2-3.1h0L109.2,133.8z M88.9,151.4c-1.4,0-2.6,1.2-2.6,2.6c0,1.4,1.2,2.6,2.6,2.6c1.4,0,2.6-1.2,2.6-2.6
	C91.5,152.5,90.3,151.4,88.9,151.4z M100.6,151.4c-1.4,0-2.6,1.1-2.6,2.6c0,1.4,1.1,2.6,2.6,2.6c1.4,0,2.6-1.1,2.6-2.6
	C103.2,152.6,102,151.4,100.6,151.4z"/>
<g display="none">
	<g display="inline">
		<rect x="109.7" y="124.9" fill="#EE7401" width="1" height="31.4"/>
	</g>
	<g display="inline">
		<rect x="107.7" y="127.6" fill="#EE7401" width="1" height="28.7"/>
	</g>
	<g display="inline">
		<rect x="105.7" y="133.5" fill="#EE7401" width="1" height="22.8"/>
	</g>
	<g display="inline">
		<rect x="103.7" y="138.1" fill="#EE7401" width="1" height="18.1"/>
	</g>
	<g display="inline">
		<rect x="101.7" y="140" fill="#EE7401" width="1" height="16.3"/>
	</g>
	<g display="inline">
		<rect x="99.7" y="139.7" fill="#EE7401" width="1" height="16.6"/>
	</g>
	<g display="inline">
		<rect x="97.7" y="138.1" fill="#EE7401" width="1" height="18.1"/>
	</g>
	<g display="inline">
		<rect x="95.7" y="136.8" fill="#EE7401" width="1" height="19.5"/>
	</g>
	<g display="inline">
		<rect x="93.7" y="135.6" fill="#EE7401" width="1" height="20.7"/>
	</g>
	<g display="inline">
		<rect x="91.7" y="138.1" fill="#EE7401" width="1" height="18.1"/>
	</g>
	<g display="inline">
		<rect x="89.7" y="143.1" fill="#EE7401" width="1" height="13.2"/>
	</g>
	<g display="inline">
		<rect x="87.7" y="147.4" fill="#EE7401" width="1" height="8.9"/>
	</g>
	<g display="inline">
		<rect x="85.7" y="146.5" fill="#EE7401" width="1" height="9.7"/>
	</g>
	<g display="inline">
		<rect x="83.7" y="145" fill="#EE7401" width="1" height="11.3"/>
	</g>
	<g display="inline">
		<rect x="81.7" y="143.1" fill="#EE7401" width="1" height="13.2"/>
	</g>
	<g display="inline">
		<rect x="79.7" y="142.5" fill="#EE7401" width="1" height="13.8"/>
	</g>
	<g display="inline">
		<rect x="77.7" y="146" fill="#EE7401" width="1" height="10.3"/>
	</g>
	<g display="inline">
		<rect x="75.7" y="151.1" fill="#EE7401" width="1" height="5.2"/>
	</g>
</g>
<g>
	<path fill="#FFFFFF" d="M112.4,127l-0.2-1.9l-0.4-2.9l-2.4,1.8l-1.5,1.2l-0.9,0.7l1.8,0.8l-3.9,9.1l-1.3,3.1l0,0.1l0,0c0,0,0,0,0,0
		l-0.4-0.3l-0.6-0.4l-1.4-1l-4.7-3.5l-0.2-0.1c-0.1,0-0.1-0.1-0.1,0l-0.2,0.4l-0.4,0.7l-0.7,1.4l-1.3,2.5l-3.1,5.9l-0.1,0.1
		c0,0.1,0,0.1-0.1,0l-0.3-0.2l-0.5-0.3l-1.1-0.7l-3.9-2.5l-1.4-0.9c-0.1-0.1-0.1,0-0.1,0.1l-0.1,0.1l-0.3,0.6l-1.1,2.4l-1.7,3.8
		l-3.2,7l2,0.9l3.2-7l1.5-3.2l0.5-1.1l0.1-0.3c0,0,0-0.1,0.1-0.1l0.1,0.1l0.5,0.3l2.6,1.6l2.2,1.4l1.1,0.7l0.6,0.4
		c0,0,0.1,0.1,0.1,0l0.1-0.1l0.2-0.3l4.1-7.8l0.8-1.6l0.5-1l0.1-0.2c0-0.1,0.1,0,0.1,0.1l2.8,2.1l2.4,1.8l1.3,0.9l1,0.7
		c0,0,0.1,0,0.1,0.1l0-0.1l0.1-0.2l2.3-5.5l3.9-9.1l1.8,0.8L112.4,127z"/>
</g>
<g>
	<path fill="#1E2F40" d="M106.5,131.9l-1.6,3.7l-1.3,3.1l0,0.1l0,0c0,0,0,0,0,0l-0.4-0.3l-0.6-0.4l-1.4-1l-4.7-3.5l-0.2-0.1
		c-0.1,0-0.1-0.1-0.1,0l-0.2,0.4l-0.4,0.7l-0.7,1.4l-1.3,2.5l-3.1,5.9l-0.1,0.1c0,0.1,0,0.1-0.1,0l-0.3-0.2l-0.5-0.3l-1.1-0.7
		l-3.9-2.5l-1.4-0.9c-0.1-0.1-0.1,0-0.1,0.1l-0.1,0.1l-0.3,0.6l1.2,2.8l0.1-0.3c0,0,0-0.1,0.1-0.1l0.1,0.1l0.5,0.3l2.6,1.6l2.2,1.4
		l1.1,0.7l0.6,0.4c0,0,0.1,0.1,0.1,0l0.1-0.1l0.2-0.3l4.1-7.8l0.8-1.6l0.5-1l0.1-0.2c0-0.1,0.1,0,0.1,0.1l2.8,2.1l2.4,1.8l1.3,0.9
		l1,0.7c0,0,0.1,0,0.1,0.1l0-0.1l0.1-0.2l2.3-5.5l1.7-4.1L106.5,131.9z"/>
</g>
<path fill="#1E2F40" d="M196.2,55.1c-0.3-1.3-0.9-1.8-1.5-1.8l0,0h-25.2l-1.3-3.2l-6.2-0.5c-2.2,1.1-0.2,3.2-0.2,3.2l4.1,0.1
	l7.7,18.8h16l1.2-3.1h0L196.2,55.1z M175.9,72.7c-1.4,0-2.6,1.2-2.6,2.6c0,1.4,1.2,2.6,2.6,2.6c1.4,0,2.6-1.2,2.6-2.6
	C178.5,73.9,177.3,72.7,175.9,72.7z M187.6,72.8c-1.4,0-2.6,1.1-2.6,2.6c0,1.4,1.1,2.6,2.6,2.6c1.4,0,2.6-1.1,2.6-2.6
	C190.2,73.9,189,72.8,187.6,72.8z"/>
<g>
	<path fill="#EE7401" d="M200.9,47.4l-0.3-2.1l-0.4-3.2l-2.6,1.9l-1.7,1.3l-1,0.8l1.9,0.8l-4.2,9.9l-1.4,3.3l0,0.1l0,0c0,0,0,0,0,0
		l-0.5-0.4l-0.6-0.5l-1.5-1.1l-5.1-3.8l-0.2-0.1c-0.1,0-0.1-0.1-0.1,0l-0.2,0.4l-0.4,0.8l-0.8,1.5l-1.4,2.7l-3.4,6.4l-0.1,0.1
		c0,0.1,0,0.1-0.1,0.1l-0.3-0.2l-0.6-0.4l-1.2-0.8l-4.3-2.7l-1.5-1c-0.1-0.1-0.1,0-0.1,0.1l-0.1,0.2l-0.3,0.6l-1.2,2.6l-1.9,4.1
		l-3.4,7.6l2.2,1l3.4-7.6l1.6-3.5l0.5-1.2l0.1-0.3c0,0,0-0.1,0.1-0.1l0.1,0.1l0.6,0.4l2.8,1.8l2.3,1.5l1.2,0.8l0.6,0.4
		c0,0,0.1,0.1,0.1,0l0.1-0.2l0.2-0.3l4.4-8.4l0.9-1.7l0.6-1.1l0.1-0.2c0-0.1,0.1,0.1,0.2,0.1l3,2.2l2.6,1.9l1.4,1l1,0.8
		c0,0,0.1,0,0.1,0.1l0-0.1l0.1-0.2l2.5-6l4.2-9.9l1.9,0.8L200.9,47.4z"/>
</g>
<g>
	<path fill="#1E2F40" d="M154.8-58.2c-0.3-1.3-0.9-1.8-1.5-1.8l0,0h-25.2l-1.3-3.2l-6.2-0.5c-2.2,1.1-0.2,3.2-0.2,3.2l4.1,0.1
		l7.7,18.8h16l1.2-3.1h0L154.8-58.2z M134.4-40.6c-1.4,0-2.6,1.2-2.6,2.6c0,1.4,1.2,2.6,2.6,2.6c1.4,0,2.6-1.2,2.6-2.6
		C137-39.5,135.9-40.6,134.4-40.6z M146.2-40.6c-1.4,0-2.6,1.1-2.6,2.6c0,1.4,1.1,2.6,2.6,2.6c1.4,0,2.6-1.1,2.6-2.6
		C148.7-39.4,147.6-40.6,146.2-40.6z"/>
	<line fill="none" stroke="#EE7401" stroke-miterlimit="10" x1="155.8" y1="-67.1" x2="155.8" y2="-35.7"/>
	<line fill="none" stroke="#EE7401" stroke-miterlimit="10" x1="153.8" y1="-64.4" x2="153.8" y2="-35.7"/>
	<line fill="none" stroke="#EE7401" stroke-miterlimit="10" x1="151.8" y1="-58.5" x2="151.8" y2="-35.7"/>
	<line fill="none" stroke="#EE7401" stroke-miterlimit="10" x1="149.8" y1="-53.9" x2="149.8" y2="-35.7"/>
	<line fill="none" stroke="#EE7401" stroke-miterlimit="10" x1="147.8" y1="-52" x2="147.8" y2="-35.7"/>
	<line fill="none" stroke="#EE7401" stroke-miterlimit="10" x1="145.8" y1="-52.3" x2="145.8" y2="-35.7"/>
	<line fill="none" stroke="#EE7401" stroke-miterlimit="10" x1="143.8" y1="-53.9" x2="143.8" y2="-35.7"/>
	<line fill="none" stroke="#EE7401" stroke-miterlimit="10" x1="141.8" y1="-55.2" x2="141.8" y2="-35.7"/>
	<line fill="none" stroke="#EE7401" stroke-miterlimit="10" x1="139.8" y1="-56.4" x2="139.8" y2="-35.7"/>
	<line fill="none" stroke="#EE7401" stroke-miterlimit="10" x1="137.8" y1="-53.9" x2="137.8" y2="-35.7"/>
	<line fill="none" stroke="#EE7401" stroke-miterlimit="10" x1="135.8" y1="-48.9" x2="135.8" y2="-35.7"/>
	<line fill="none" stroke="#EE7401" stroke-miterlimit="10" x1="133.8" y1="-44.6" x2="133.8" y2="-35.7"/>
	<line fill="none" stroke="#EE7401" stroke-miterlimit="10" x1="131.8" y1="-45.5" x2="131.8" y2="-35.7"/>
	<line fill="none" stroke="#EE7401" stroke-miterlimit="10" x1="129.8" y1="-47" x2="129.8" y2="-35.7"/>
	<line fill="none" stroke="#EE7401" stroke-miterlimit="10" x1="127.8" y1="-48.9" x2="127.8" y2="-35.7"/>
	<line fill="none" stroke="#EE7401" stroke-miterlimit="10" x1="125.8" y1="-49.5" x2="125.8" y2="-35.7"/>
	<line fill="none" stroke="#EE7401" stroke-miterlimit="10" x1="123.8" y1="-46" x2="123.8" y2="-35.7"/>
	<line fill="none" stroke="#EE7401" stroke-miterlimit="10" x1="121.8" y1="-40.9" x2="121.8" y2="-35.7"/>
	<g>
		<g>
			<g>
				<path fill="#F0841E" d="M120.8-35.7l3.4-7.6l1.6-3.5l0.5-1.2l0.1-0.3c0,0,0-0.1,0.1-0.1l0.1,0.1l0.6,0.4l2.8,1.8l2.3,1.5
					l1.2,0.8l0.6,0.4c0,0,0.1,0.1,0.1,0l0.1-0.2l0.2-0.3l4.4-8.4l0.9-1.7l0.4-0.7l0.2-0.4l0.1-0.2c0-0.1,0.1,0.1,0.2,0.1l3,2.2
					l2.6,1.9l1.4,1l0.7,0.5l0.3,0.3c0,0,0.1,0,0.1,0.1l0-0.1l0.1-0.2l2.5-6l4.2-9.9l1.9,0.8l-0.2-1.3l-0.3-2.1l-0.4-3.2l-2.6,1.9
					l-1.7,1.3l-1,0.8l1.9,0.8l-4.2,9.9l-1.4,3.3l0,0.1l0,0c0,0,0,0,0,0l-0.2-0.1l-0.3-0.2l-0.6-0.5l-1.5-1.1l-5.1-3.8l-0.2-0.1
					c-0.1,0-0.1-0.1-0.1,0l-0.2,0.4l-0.4,0.8l-0.8,1.5l-1.4,2.7l-3.4,6.4l-0.1,0.1c0,0.1,0,0.1-0.1,0.1l-0.3-0.2l-0.6-0.4l-1.2-0.8
					L127-51l-1.2-0.8l-0.3-0.2c-0.1-0.1-0.1,0-0.1,0.1l-0.1,0.2l-0.3,0.6l-1.2,2.6l-1.9,4.1l-3.4,7.6L120.8-35.7z"/>
			</g>
		</g>
	</g>
</g>
</svg>