<?xml version="1.0" encoding="utf-8"?>
<svg version="1.1" xmlns="http://www.w3.org/2000/svg" x="0px" y="0px"
	 viewBox="0 0 28 28" style="enable-background:new 0 0 28 28;" xml:space="preserve">
<rect fill="#292929" width="28" height="28"/>
<g>
	<path fill="#FFFFFF" d="M12.7,18.2c-0.6,0-1.2,0.5-1.2,1.2s0.5,1.2,1.2,1.2c0.6,0,1.2-0.5,1.2-1.2S13.3,18.2,12.7,18.2z M22,10.2
	c-0.3-1.4-1.3-0.5-1.3-0.5L18,16.3h-5.4L9.3,7.9L6.4,7.7c-1,0.5-0.1,1.5-0.1,1.5l1.9,0.1l3.5,8.5h7.3l0.5-1.4l0,0L22,10.2z M18,18.2
	c-0.6,0-1.2,0.5-1.2,1.2s0.5,1.2,1.2,1.2s1.2-0.5,1.2-1.2S18.7,18.2,18,18.2z M15.1,6.8c-1.5,0.4-3.5,0.6-3.5,1.6
	c0,1.9,1.7,6.6,3.2,6.6h0.3c1.1,0,2.3-1.8,2.7-2.6C16.8,13,13.8,7.4,15.1,6.8z M19.5,7.4c-0.4-0.8-1.9-0.7-2.7-0.7
	c-1.6,0,0.5,4,1.5,4.5C19.1,10.2,20,8.2,19.5,7.4z"/>
</g>
</svg>
