<?xml version="1.0" encoding="utf-8"?>
<svg version="1.1" xmlns="http://www.w3.org/2000/svg" x="0px" y="0px"
	 viewBox="0 0 28 28" style="enable-background:new 0 0 28 28;" xml:space="preserve">
<rect fill="#3A7CAE" width="28" height="28"/>
<g>
	<g>
		<path fill="#FFFFFF" d="M12.9,7.2H18c0.6,0,1-0.5,1-1s-0.5-1-1-1h-5.1c-0.6,0-1,0.5-1,1S12.3,7.2,12.9,7.2z M12.9,12.7H18
			c0.6,0,1-0.5,1-1c0-0.6-0.5-1-1-1h-5.1c-0.6,0-1,0.5-1,1C11.9,12.2,12.3,12.7,12.9,12.7z M12.9,9.8H18c0.6,0,1-0.5,1-1
			c0-0.6-0.5-0.9-1-0.9h-5.1c-0.6,0-1,0.5-1,1S12.3,9.8,12.9,9.8z M12.2,20.6c-0.8,0-1.4,0.7-1.4,1.4c0,0.8,0.7,1.4,1.4,1.4
			s1.4-0.7,1.4-1.4C13.7,21.2,13,20.6,12.2,20.6z M23.4,11c-0.4-1.7-1.6-0.7-1.6-0.7l-3.2,8h-6.5l-4-10.2L4.7,7.9
			C3.5,8.6,4.6,9.7,4.6,9.7l2.3,0.1l4.2,10.3h8.8l0.7-1.7l0,0L23.4,11z M18.7,20.6c-0.8,0-1.4,0.7-1.4,1.4c0,0.8,0.7,1.4,1.4,1.4
			s1.4-0.7,1.4-1.4C20.1,21.2,19.4,20.6,18.7,20.6z M12.9,15.5H18c0.6,0,1-0.5,1-1c0-0.6-0.5-1-1-1h-5.1c-0.6,0-1,0.5-1,1
			C11.9,15,12.3,15.5,12.9,15.5z"/>
	</g>
</g>
</svg>
