<?xml version="1.0" encoding="utf-8"?>
<!-- Generator: Adobe Illustrator 18.1.0, SVG Export Plug-In . SVG Version: 6.00 Build 0)  -->
<!DOCTYPE svg PUBLIC "-//W3C//DTD SVG 1.1//EN" "http://www.w3.org/Graphics/SVG/1.1/DTD/svg11.dtd">
<svg version="1.1" id="Ebene_1" xmlns="http://www.w3.org/2000/svg" xmlns:xlink="http://www.w3.org/1999/xlink" x="0px" y="0px"
	 viewBox="0 0 28 28" enable-background="new 0 0 28 28" xml:space="preserve">
<rect x="0" y="0" fill-rule="evenodd" clip-rule="evenodd" fill="#1F3041" width="28" height="28"/>
<g>
	<g>
		<path fill="#FFFFFF" d="M23.7,11.7c-0.4-1.8-1.7-0.7-1.7-0.7l-3.4,8.5h-6.9L7.5,8.7L3.9,8.5c-1.3,0.7-0.1,1.9-0.1,1.9l2.4,0.1
			l4.5,10.9h9.3l0.7-1.8h0L23.7,11.7z M11.9,21.9c-0.8,0-1.5,0.7-1.5,1.5s0.7,1.5,1.5,1.5s1.5-0.7,1.5-1.5S12.7,21.9,11.9,21.9z
			 M18.7,21.9c-0.8,0-1.5,0.7-1.5,1.5c0,0.8,0.7,1.5,1.5,1.5c0.8,0,1.5-0.7,1.5-1.5C20.2,22.6,19.5,21.9,18.7,21.9z M11.9,15.4
			l2.5,0.1c0.5,0,1.3-0.3,1.7-0.7l5.3-5.3c0.4-0.4,0.4-1,0-1.4l-3.3-3.3c-0.4-0.4-1-0.4-1.4,0l-5.3,5.3c-0.4,0.4-0.7,1.2-0.7,1.7
			l0.1,2.5C10.9,14.9,11.4,15.3,11.9,15.4z M12.4,12.2c0.5-0.5,1.2-0.5,1.7,0c0.5,0.5,0.5,1.2,0,1.7c-0.5,0.5-1.2,0.5-1.7,0
			C11.9,13.4,11.9,12.7,12.4,12.2z"/>
	</g>
</g>
</svg>