<?xml version="1.0" encoding="utf-8"?>
<!-- Generator: Adobe Illustrator 22.0.1, SVG Export Plug-In . SVG Version: 6.00 Build 0)  -->
<svg version="1.1" id="Ebene_1" xmlns="http://www.w3.org/2000/svg" xmlns:xlink="http://www.w3.org/1999/xlink" x="0px" y="0px"
	 viewBox="0 0 16 16" style="enable-background:new 0 0 16 16;" xml:space="preserve">
<style type="text/css">
	.st0{fill:#3A7CAE;}
	.st1{fill:#FFFFFF;}
</style>
<rect class="st0" width="16" height="16"/>
<polygon class="st1" points="3.1,7.1 8,15 13,7.1 "/>
<path class="st1" d="M10.7,6c0.3-0.5,0.5-1,0.5-1.6c0-1.7-1.4-3-3-3c-1.7,0-3,1.4-3,3C5.1,5,5.3,5.6,5.6,6H10.7z"/>
<path class="st1" d="M7,6H3c0-1.1,0.9-2,2-2S7,4.9,7,6z"/>
<path class="st0" d="M5,4c1.1,0,2,0.9,2,2H3C3,4.9,3.9,4,5,4 M5,3C3.4,3,2,4.4,2,6v1h1h4h1V6C8,4.4,6.7,3,5,3L5,3z"/>
<g>
	<path class="st1" d="M9.7,6.5l0-0.5c0.1-1,0.9-1.8,1.9-1.8S13.5,5,13.6,6l0,0.5H9.7z"/>
	<path class="st0" d="M11.7,4.7c0.8,0,1.4,0.6,1.4,1.3h-2.8C10.3,5.3,10.9,4.7,11.7,4.7 M11.7,3.7c-1.3,0-2.3,1-2.4,2.3L9.2,7h1.1
		h2.8h1.1L14.1,6C14,4.7,12.9,3.7,11.7,3.7L11.7,3.7z"/>
</g>
</svg>
