<?xml version="1.0" encoding="utf-8"?>
<!-- Generator: Adobe Illustrator 22.0.1, SVG Export Plug-In . SVG Version: 6.00 Build 0)  -->
<svg version="1.1" id="Ebene_1" xmlns="http://www.w3.org/2000/svg" xmlns:xlink="http://www.w3.org/1999/xlink" x="0px" y="0px"
	 viewBox="0 0 16 16" style="enable-background:new 0 0 16 16;" xml:space="preserve">
<style type="text/css">
	.st0{fill:#3A7CAE;}
	.st1{fill:#50AAE2;}
</style>
<path class="st0" d="M10.7,5.7V5.4c0.1-0.6,0.6-1.1,1.3-1.1c0.7,0,1.3,0.5,1.4,1.1v0.3H10.7z"/>
<polygon class="st0" points="2.8,6.8 8,15.2 13.2,6.8 "/>
<path class="st1" d="M8.2,0.8c-1.3,0-2.3,0.7-2.8,1.7C6.9,2.8,8,4.2,8,5.7h1.4c0.1-1.2,0.9-2.1,1.9-2.3C11,1.9,9.6,0.8,8.2,0.8z"/>
<path class="st0" d="M6.9,5.7H2.7c0-1.2,0.9-2.1,2.1-2.1S6.9,4.5,6.9,5.7z"/>
</svg>
